<svg width="237" height="48" viewBox="0 0 237 48" fill="none" xmlns="http://www.w3.org/2000/svg">
<rect width="236.867" height="48" rx="6" fill="white"/>
<path fill-rule="evenodd" clip-rule="evenodd" d="M180.749 31.8198L180.748 31.8191H185.357L188.188 26.127L191.019 31.8191H196.618L188.187 15.5405L180.184 30.9947L177.111 26.508C179.008 25.593 180.191 24.0083 180.191 21.732V21.6872C180.191 20.0806 179.7 18.9199 178.763 17.9824C177.669 16.8889 175.906 16.1971 173.139 16.1971H165.506V31.8198H170.728V27.3561H171.844L174.79 31.8198H180.749ZM212.954 15.5405L204.524 31.8191H210.124L212.955 26.127L215.786 31.8191H221.385L212.954 15.5405ZM200.576 32.4596L209.006 16.1811H203.406L200.575 21.8731L197.744 16.1811H192.144L200.576 32.4596ZM172.982 23.6289C174.232 23.6289 174.991 23.071 174.991 22.1114V22.0666C174.991 21.0623 174.21 20.5714 173.005 20.5714H170.728V23.6289H172.982ZM154.337 20.616H149.74V16.1971H164.157V20.616H159.56V31.8198H154.337V20.616ZM137.015 26.1509L134.225 29.4763C136.211 31.2174 139.068 32.1099 142.237 32.1099C146.433 32.1099 149.133 30.1012 149.133 26.8203V26.7758C149.133 23.629 146.455 22.4683 142.46 21.732C140.808 21.4192 140.384 21.1518 140.384 20.7276V20.6829C140.384 20.3036 140.742 20.0358 141.523 20.0358C142.973 20.0358 144.737 20.5044 146.209 21.5756L148.754 18.0496C146.946 16.6211 144.714 15.9068 141.701 15.9068C137.394 15.9068 135.073 18.2058 135.073 21.1739V21.2187C135.073 24.5216 138.153 25.5262 141.656 26.24C143.33 26.575 143.821 26.8203 143.821 27.2668V27.3116C143.821 27.7354 143.42 27.9807 142.482 27.9807C140.652 27.9807 138.711 27.4455 137.015 26.1509Z" fill="#FC5200"/>
<path d="M117.92 31.6815V21.9624H119.919V25.7535H124.137V21.9624H126.136V31.6815H124.137V27.5181H119.919V31.6815H117.92Z" fill="black"/>
<path d="M110.959 31.6815V23.7132H107.844V21.9624H116.088V23.7132H112.958V31.6815H110.959Z" fill="black"/>
<path d="M104.02 31.6815V21.9624H106.018V31.6815H104.02Z" fill="black"/>
<path d="M92.1013 31.6815L89.5371 21.9624H91.6464L92.7492 27.201C92.8871 27.9041 93.0112 28.4693 93.1352 29.3379H93.1904C93.3282 28.6072 93.4109 28.1523 93.6315 27.1873L94.8723 21.9624H96.9677L98.2084 27.1873C98.429 28.1523 98.5117 28.6072 98.6496 29.3379H98.7047C98.8288 28.4693 98.9529 27.9041 99.0907 27.201L100.207 21.9624H102.303L99.7387 31.6815H97.657L96.4301 26.498C96.2646 25.7673 96.1543 25.2848 95.9476 24.2784H95.8924C95.6856 25.2848 95.5753 25.7673 95.4099 26.498L94.183 31.6815H92.1013Z" fill="black"/>
<path d="M79.9965 31.6815V23.7132H76.8809V21.9624H85.1248V23.7132H81.9954V31.6815H79.9965Z" fill="black"/>
<path d="M71.524 31.8883C68.7806 31.8883 66.9746 29.8755 66.9746 26.815C66.9746 23.7684 68.7806 21.7556 71.524 21.7556C73.6883 21.7556 75.3151 23.0239 75.577 24.8437L73.5781 25.3124C73.3575 24.1957 72.5855 23.534 71.4964 23.534C69.9799 23.534 69.0287 24.7885 69.0287 26.815C69.0287 28.8416 69.9799 30.1099 71.4964 30.1099C72.5855 30.1099 73.3575 29.4481 73.5781 28.3453L75.577 28.814C75.3151 30.6337 73.6883 31.8883 71.524 31.8883Z" fill="black"/>
<path d="M58.459 31.6815V21.9624H65.2003V23.6581H60.4579V25.8638H64.8556V27.5043H60.4579V29.9858H65.2003V31.6815H58.459Z" fill="black"/>
<path d="M47.7656 31.6815V21.9624H49.9576L52.9216 26.9115C53.3765 27.656 53.6798 28.2901 54.0106 28.9932H54.0796L54.0382 26.5117V21.9624H55.9407V31.6815H53.7487L50.771 26.7323C50.3298 25.9879 50.0265 25.3675 49.6819 24.6507H49.6267L49.6681 27.1321V31.6815H47.7656Z" fill="black"/>
<path d="M37.0742 31.6815V21.9624H39.2662L42.2301 26.9115C42.6851 27.656 42.9884 28.2901 43.3192 28.9932H43.3882L43.3468 26.5117V21.9624H45.2493V31.6815H43.0573L40.0795 26.7323C39.6384 25.9879 39.3351 25.3675 38.9905 24.6507H38.9353L38.9767 27.1321V31.6815H37.0742Z" fill="black"/>
<path d="M30.2903 31.8883C27.4642 31.8883 25.6582 29.8204 25.6582 26.815C25.6582 23.8235 27.4642 21.7556 30.2903 21.7556C33.1164 21.7556 34.9223 23.8235 34.9223 26.815C34.9223 29.8204 33.1164 31.8883 30.2903 31.8883ZM30.2903 30.1099C31.8481 30.1099 32.8682 28.9381 32.8682 26.815C32.8682 24.692 31.8481 23.534 30.2903 23.534C28.7325 23.534 27.7123 24.692 27.7123 26.815C27.7123 28.9381 28.7325 30.1099 30.2903 30.1099Z" fill="black"/>
<path d="M19.9868 31.8883C17.2435 31.8883 15.4375 29.8755 15.4375 26.815C15.4375 23.7684 17.2435 21.7556 19.9868 21.7556C22.1512 21.7556 23.778 23.0239 24.0399 24.8437L22.0409 25.3124C21.8204 24.1957 21.0484 23.534 19.9593 23.534C18.4428 23.534 17.4916 24.7885 17.4916 26.815C17.4916 28.8416 18.4428 30.1099 19.9593 30.1099C21.0484 30.1099 21.8204 29.4481 22.0409 28.3453L24.0399 28.814C23.778 30.6337 22.1512 31.8883 19.9868 31.8883Z" fill="black"/>
</svg>
